<?xml version="1.0" standalone="no"?>
<!DOCTYPE svg PUBLIC "-//W3C//DTD SVG 20010904//EN"
 "http://www.w3.org/TR/2001/REC-SVG-20010904/DTD/svg10.dtd">
<svg version="1.0" xmlns="http://www.w3.org/2000/svg"
 width="100.000000pt" height="100.000000pt" viewBox="0 0 100.000000 100.000000"
 preserveAspectRatio="xMidYMid meet">
<metadata>
Created by potrace 1.16, written by Peter Selinger 2001-2019
</metadata>
<g transform="translate(0.000000,100.000000) scale(0.100000,-0.100000)"
fill="#000000" stroke="none">
<path d="M158 913 c-25 -28 -78 -158 -78 -194 0 -26 30 -25 89 6 l48 24 23
-24 c13 -14 32 -25 42 -25 10 0 40 11 67 25 l48 24 23 -24 c13 -14 32 -25 42
-25 10 0 40 11 67 25 l48 24 24 -25 c40 -42 57 -29 96 74 26 68 40 92 53 92
10 0 21 -7 24 -16 14 -36 4 -80 -44 -194 l-50 -120 0 -230 0 -230 -280 0 -280
0 0 211 0 211 36 84 c20 47 34 87 31 90 -15 16 -61 -27 -83 -77 -22 -52 -23
-65 -24 -306 l0 -253 420 0 420 0 0 250 0 250 -50 120 c-39 93 -50 132 -50
173 0 90 11 87 -336 87 l-300 0 -26 -27z m508 -50 c-36 -99 -35 -97 -55 -79
-24 22 -43 20 -100 -9 l-48 -24 -23 24 c-29 31 -48 31 -109 0 l-48 -24 -24 25
c-24 25 -48 28 -92 9 -17 -7 -17 -5 1 41 11 29 29 54 43 61 17 9 90 13 246 13
l222 0 -13 -37z m177 -254 l37 -90 0 -210 0 -209 -80 0 -80 0 0 209 0 210 37
90 c20 50 40 91 43 91 3 0 23 -41 43 -91z"/>
<path d="M240 320 l0 -120 160 0 160 0 0 120 0 120 -160 0 -160 0 0 -120z
m280 0 l0 -80 -120 0 -120 0 0 80 0 80 120 0 120 0 0 -80z"/>
</g>
</svg>
